HIERARCHY
ROOT Hips
{
 OFFSET 0.000000 0.000000 0.000000
 CHANNELS 6 Xposition Yposition Zposition Yrotation Xrotation Zrotation
 JOINT Chest
 {
  OFFSET 0.000000 9.585900 0.002600
  CHANNELS 3 Yrotation Xrotation Zrotation
  JOINT Chest2
  {
   OFFSET 0.000000 9.601200 -0.005300
   CHANNELS 3 Yrotation Xrotation Zrotation
   JOINT Chest3
   {
    OFFSET 0.000000 9.561800 0.000000
    CHANNELS 3 Yrotation Xrotation Zrotation
    JOINT Chest4
    {
     OFFSET 0.000000 9.552100 0.000000
     CHANNELS 3 Yrotation Xrotation Zrotation
     JOINT Neck
     {
      OFFSET 0.000000 14.453000 0.000000
      CHANNELS 3 Yrotation Xrotation Zrotation
      JOINT Head
      {
       OFFSET 0.000000 8.936500 -0.011300
       CHANNELS 3 Yrotation Xrotation Zrotation
       End Site
       {
        OFFSET 0.000000 17.073600 -0.006000
       }
      }
     }
     JOINT RightCollar
     {
      OFFSET -2.921100 9.558500 0.000000
      CHANNELS 3 Yrotation Xrotation Zrotation
      JOINT RightShoulder
      {
       OFFSET -13.519700 0.000000 0.000000
       CHANNELS 3 Yrotation Xrotation Zrotation
       JOINT RightElbow
       {
        OFFSET 0.000000 -29.696600 0.000000
        CHANNELS 3 Yrotation Xrotation Zrotation
        JOINT RightWrist
        {
         OFFSET 0.000000 -24.004700 0.000000
         CHANNELS 3 Yrotation Xrotation Zrotation
         End Site
         {
          OFFSET 0.000000 -17.728500 0.000000
         }
        }
       }
      }
     }
     JOINT LeftCollar
     {
      OFFSET 2.921100 9.558500 0.000000
      CHANNELS 3 Yrotation Xrotation Zrotation
      JOINT LeftShoulder
      {
       OFFSET 13.519700 0.000000 0.000000
       CHANNELS 3 Yrotation Xrotation Zrotation
       JOINT LeftElbow
       {
        OFFSET 0.000000 -29.696600 0.000000
        CHANNELS 3 Yrotation Xrotation Zrotation
        JOINT LeftWrist
        {
         OFFSET 0.000000 -24.004700 0.000000
         CHANNELS 3 Yrotation Xrotation Zrotation
         End Site
         {
          OFFSET 0.000000 -17.728500 0.000000
         }
        }
       }
      }
     }
    }
   }
  }
 }
 JOINT RightHip
 {
  OFFSET -7.771700 -0.012900 -0.001300
  CHANNELS 3 Yrotation Xrotation Zrotation
  JOINT RightKnee
  {
   OFFSET 0.000000 -40.869800 0.001200
   CHANNELS 3 Yrotation Xrotation Zrotation
   JOINT RightAnkle
   {
    OFFSET 0.000000 -39.717900 0.002100
    CHANNELS 3 Yrotation Xrotation Zrotation
    JOINT RightToe
    {
     OFFSET 0.000000 -4.965400 11.033500
     CHANNELS 3 Yrotation Xrotation Zrotation
     End Site
     {
      OFFSET 0.000000 -1.423100 5.872300
     }
    }
   }
  }
 }
 JOINT LeftHip
 {
  OFFSET 7.771700 -0.012900 -0.001300
  CHANNELS 3 Yrotation Xrotation Zrotation
  JOINT LeftKnee
  {
   OFFSET 0.000000 -40.869800 0.001200
   CHANNELS 3 Yrotation Xrotation Zrotation
   JOINT LeftAnkle
   {
    OFFSET 0.000000 -39.717900 0.002100
    CHANNELS 3 Yrotation Xrotation Zrotation
    JOINT LeftToe
    {
     OFFSET 0.000000 -4.965400 11.033500
     CHANNELS 3 Yrotation Xrotation Zrotation
     End Site
     {
      OFFSET 0.000000 -1.423100 5.872300
     }
    }
   }
  }
 }
}
MOTION
Frames: 16
Frame Time: 0.008333
0.000000 85.388000 0.000000 0.000000 -5.767877 0.000000 0.000000 11.653817 0.000000 0.000000 -5.885947 0.000000 0.000000 -0.000000 0.000000 0.000000 -0.000000 0.000000 0.000000 12.528835 0.000000 0.000000 0.711642 0.000000 0.000000 -0.000000 0.000000 0.000000 0.000000 -90.000000 0.000000 -2.309062 0.000000 0.000000 2.309062 0.000000 0.000000 -0.000000 0.000000 0.000000 -0.000000 90.000000 0.000000 -2.309062 0.000000 0.000000 2.309062 0.000000 0.000000 8.520406 0.000000 0.000000 1.905762 0.000000 -0.000000 -4.658285 0.000000 0.000000 -0.000000 0.000000 0.000000 8.520406 0.000000 0.000000 1.905762 0.000000 -0.000000 -4.658285 0.000000 0.000000 -0.000000 0.000000
-56.665996 50.545077 -0.771067 169.084394 -6.229935 0.538487 4.224622 6.565302 0.720616 0.198425 0.317340 -0.014695 0.346761 0.554582 -0.024961 3.958624 6.334227 -0.084768 4.181337 17.980012 0.738246 7.450399 -2.346536 -0.012540 0.759995 7.234658 0.839638 -7.834560 -10.538359 -7.317671 -36.757537 -72.794779 55.194692 -3.685855 -1.795799 -30.918309 -5.225563 4.568309 1.026878 18.689222 -4.279345 1.937598 43.483003 -80.701381 -67.856162 -0.769281 10.029706 9.770320 0.806226 -73.667986 -11.814266 -121.690372 78.592780 -119.332713 -0.501804 -17.356614 0.553084 -0.058284 1.017084 0.000763 -8.796338 -78.227971 18.986753 109.240085 78.008922 106.528603 -14.838329 -21.615201 -0.119560 -0.789487 -1.310645 -0.175469
-56.654973 50.543282 -0.810212 169.216287 -6.263841 0.547302 4.235667 6.617382 0.744868 0.200449 0.314453 -0.014079 0.350342 0.549614 -0.023923 4.007346 6.288947 -0.072547 4.203917 17.917798 0.761904 7.485867 -2.462464 0.020300 0.777635 7.173224 0.850701 -7.809776 -10.612789 -7.325694 -36.901123 -72.908879 55.288695 -3.652238 -1.805514 -30.895616 -5.212293 4.525422 1.036372 18.737450 -4.299722 1.916223 43.792858 -80.693579 -68.215808 -0.761045 10.001043 9.771363 0.751831 -73.623909 -11.923134 -122.151229 78.563603 -119.756348 -0.524399 -17.448124 0.512063 -0.027091 1.007363 0.018686 -8.635301 -78.191258 18.764171 109.411862 78.057950 106.674340 -14.876004 -21.650907 -0.087860 -0.779856 -1.287351 -0.162015
-56.644550 50.540164 -0.841982 169.326536 -6.228037 0.560531 4.194602 6.591170 0.739056 0.270799 0.321722 0.000386 0.353727 0.544870 -0.022934 4.053352 6.245519 -0.061007 4.217275 17.857777 0.785398 7.504396 -2.574625 0.055988 0.798661 7.109706 0.861846 -7.782447 -10.700777 -7.334520 -37.039360 -73.030398 55.381059 -3.622932 -1.812424 -30.875530 -5.196930 4.478688 1.043805 18.786920 -4.329713 1.892510 44.076093 -80.684679 -68.544285 -0.749296 9.971065 9.782795 0.749826 -73.646933 -12.058283 -122.509591 78.544442 -120.081049 -0.526929 -17.526345 0.482443 -0.019042 1.007406 0.025339 -8.535061 -78.222430 18.609498 109.526504 78.097347 106.769114 -14.915392 -21.680444 -0.051709 -0.768293 -1.241398 -0.199145
-56.631993 50.536656 -0.870179 169.435268 -6.161184 0.562445 4.256542 6.547759 0.773682 0.236505 0.314277 -0.006374 0.356661 0.540120 -0.021956 4.095481 6.202706 -0.049844 4.222766 17.800860 0.808081 7.508713 -2.681326 0.092921 0.827107 7.044627 0.875668 -7.750298 -10.800213 -7.346364 -37.184000 -73.152664 55.477460 -3.598532 -1.816150 -30.863684 -5.179499 4.427450 1.047425 18.836647 -4.363427 1.869922 44.353833 -80.677365 -68.858938 -0.735007 9.942409 9.797544 0.718437 -73.702043 -12.152962 -122.830831 78.521991 -120.370614 -0.527356 -17.591588 0.458326 -0.014438 1.001299 0.028548 -8.519375 -78.282718 18.537366 109.573293 78.142168 106.817660 -14.967516 -21.697900 -0.078100 -0.714083 -1.196291 -0.188072
-56.623124 50.533883 -0.901765 169.508548 -6.110035 0.596613 4.341714 6.524091 0.777464 0.205449 0.306051 -0.012492 0.294027 0.528305 -0.033609 4.200239 6.165231 -0.027751 4.221418 17.748054 0.830102 7.500568 -2.780619 0.131127 0.865486 6.979549 0.893108 -7.714162 -10.907455 -7.358481 -37.339430 -73.272563 55.580108 -3.578551 -1.818479 -30.860963 -5.162208 4.374085 1.049194 18.885813 -4.397133 1.848696 44.638530 -80.671342 -69.168837 -0.722184 9.914747 9.812470 0.841554 -73.734683 -12.367504 -123.113274 78.503973 -120.619567 -0.533172 -17.675294 0.443899 -0.006787 1.019901 0.028754 -8.350178 -78.333853 18.334527 109.718802 78.157592 106.932389 -14.937245 -21.696625 -0.108254 -0.747641 -1.192694 -0.166278
-56.613576 50.531547 -0.930976 169.570440 -6.055377 0.626800 4.339806 6.481873 0.755724 0.266105 0.314394 -0.000132 0.238557 0.515705 -0.045230 4.295855 6.128803 -0.006671 4.213245 17.699277 0.851660 7.479778 -2.872558 0.170974 0.911740 6.912459 0.911427 -7.671407 -11.020351 -7.371356 -37.514097 -73.383148 55.700687 -3.563720 -1.817897 -30.860797 -5.145885 4.319490 1.047270 18.931565 -4.431888 1.827793 44.909522 -80.667349 -69.455508 -0.709965 9.886513 9.829280 0.977610 -73.765613 -12.578731 -123.366610 78.491692 -120.836478 -0.533580 -17.762549 0.435329 -0.007151 1.047465 0.023408 -8.244106 -78.390089 18.183525 109.836784 78.144867 107.019824 -14.898190 -21.693112 -0.082731 -0.805048 -1.198317 -0.204861
-56.605200 50.528870 -0.949519 169.612635 -5.952910 0.654473 4.354637 6.392193 0.734663 0.266445 0.312977 -0.000294 0.389772 0.530202 -0.014125 4.237598 6.078275 -0.017918 4.199003 17.654147 0.873212 7.447577 -2.957884 0.213001 0.963024 6.842829 0.930353 -7.618552 -11.138618 -7.386064 -37.713696 -73.476556 55.846727 -3.553793 -1.815592 -30.859838 -5.131778 4.262715 1.041994 18.971211 -4.466953 1.808023 45.158429 -80.666677 -69.711066 -0.692129 9.857372 9.850855 1.084235 -73.859062 -12.731808 -123.513054 78.480283 -120.966790 -0.528463 -17.797028 0.413877 -0.011147 1.050761 0.031993 -8.100128 -78.486040 18.045563 109.903211 78.164784 107.065347 -14.942943 -21.715587 -0.055375 -0.801041 -1.183462 -0.196591
-56.595157 50.526729 -0.965886 169.654821 -5.860420 0.668870 4.509525 6.333229 0.770358 0.208949 0.298650 -0.011397 0.392565 0.524757 -0.013409 4.240327 6.036630 -0.016894 4.181177 17.613235 0.894515 7.408749 -3.035546 0.256031 1.018642 6.771645 0.951175 -7.553439 -11.260506 -7.404668 -37.940873 -73.550858 56.014051 -3.544191 -1.816149 -30.855345 -5.121281 4.204780 1.035982 19.004704 -4.500429 1.789402 45.399326 -80.667774 -69.942607 -0.670676 9.828510 9.875797 1.144200 -73.942455 -12.834209 -123.654375 78.471300 -121.093258 -0.520097 -17.828429 0.402146 -0.022164 1.050014 0.034391 -8.008917 -78.570034 17.954517 109.946797 78.181322 107.089189 -14.939791 -21.742015 -0.055235 -0.761167 -1.143766 -0.195627
-56.589488 50.525726 -0.988013 169.723444 -5.821263 0.709991 4.565451 6.315838 0.759369 0.210441 0.295804 -0.011018 0.316898 0.512432 -0.028288 4.256251 6.018190 -0.013506 4.229454 17.563724 0.920061 7.366542 -3.105853 0.298506 1.145946 6.686678 0.980308 -7.474852 -11.386817 -7.430095 -38.183227 -73.608598 56.184635 -3.532591 -1.822992 -30.843671 -5.047035 4.135774 1.037339 19.032555 -4.533466 1.770893 45.637203 -80.670136 -70.153751 -0.651768 9.799259 9.901986 1.311128 -73.963165 -13.066157 -123.866640 78.455681 -121.275519 -0.559391 -17.905492 0.384102 0.005466 1.075486 0.054666 -7.770182 -78.606464 17.691590 110.010153 78.186800 107.117272 -14.995031 -21.751562 -0.026172 -0.847430 -1.112270 -0.233267
-56.575700 50.525300 -1.011836 169.824884 -5.826230 0.697830 4.560895 6.334052 0.790658 0.211577 0.293884 -0.010708 0.274789 0.503644 -0.036059 4.364931 5.985195 0.007778 4.171860 17.536293 0.935485 7.320473 -3.171356 0.338029 1.176582 6.622087 1.003309 -7.387168 -11.523091 -7.462005 -38.426670 -73.653964 56.350814 -3.520505 -1.836038 -30.830150 -5.078480 4.086787 1.028208 19.054996 -4.568851 1.752637 45.868156 -80.676408 -70.347407 -0.634416 9.768996 9.929949 1.273028 -73.941556 -13.118010 -124.193730 78.445587 -121.582076 -0.573747 -17.972389 0.392650 -0.007427 1.076285 0.043620 -7.729995 -78.587080 17.616391 110.018832 78.243494 107.128411 -15.096127 -21.794722 -0.026046 -0.789575 -1.068079 -0.189340
-56.566075 50.523364 -1.019506 169.828621 -5.755663 0.697385 4.627155 6.274757 0.806482 0.188952 0.288927 -0.015313 0.390910 0.515834 -0.013892 4.351941 5.945104 0.007209 4.092767 17.520797 0.942031 7.291165 -3.243651 0.369444 1.213692 6.560821 1.027159 -7.292381 -11.672922 -7.498619 -38.668039 -73.691572 56.514570 -3.509492 -1.853060 -30.821103 -5.110417 4.039775 1.018388 19.072896 -4.608083 1.735244 46.097975 -80.688569 -70.535132 -0.618171 9.740715 9.960217 1.356817 -74.001735 -13.184633 -124.226883 78.430275 -121.591348 -0.574644 -17.991689 0.389292 0.000487 1.085966 0.029792 -7.722127 -78.651100 17.633140 110.040881 78.262358 107.144230 -15.108020 -21.808879 -0.030653 -0.754126 -1.042801 -0.192866
-56.561614 50.521460 -1.027512 169.905649 -5.708076 0.713426 4.629134 6.244363 0.802773 0.155438 0.279154 -0.020807 0.411645 0.517586 -0.009656 4.394787 5.923905 0.015925 4.003166 17.521946 0.938197 7.298553 -3.329072 0.391614 1.283404 6.498838 1.053700 -7.193133 -11.835315 -7.538472 -38.901157 -73.726862 56.673724 -3.501792 -1.873276 -30.816623 -5.113870 3.990796 1.012182 19.088243 -4.650694 1.719769 46.333098 -80.705011 -70.724410 -0.603491 9.714264 9.992214 1.501270 -74.047896 -13.373539 -124.375633 78.393856 -121.717233 -0.603353 -18.009657 0.385304 0.018079 1.072885 0.047174 -7.673723 -78.696495 17.530973 110.013094 78.271839 107.089347 -15.115123 -21.807657 -0.014996 -0.768145 -1.021642 -0.208498
-56.559732 50.519189 -1.032069 169.965587 -5.662068 0.734701 4.658850 6.221791 0.797932 0.141458 0.271746 -0.021890 0.373949 0.508555 -0.016763 4.408070 5.912674 0.017644 4.089849 17.460117 0.968824 7.181747 -3.346571 0.425370 1.401935 6.438267 1.083838 -7.095591 -12.008449 -7.580436 -39.110940 -73.762291 56.818926 -3.493801 -1.897195 -30.814919 -5.073079 3.943455 1.012323 19.104047 -4.697201 1.707088 46.559693 -80.721577 -70.903032 -0.588701 9.687767 10.022810 1.559436 -74.094622 -13.486320 -124.496920 78.381992 -121.844416 -0.589414 -18.036961 0.393996 -0.002718 1.076067 0.034694 -7.612555 -78.741363 17.424279 109.975452 78.280924 107.033676 -15.135308 -21.801741 -0.008871 -0.728587 -0.995332 -0.234339
-56.562590 50.517001 -1.037714 170.051346 -5.641680 0.773649 4.602896 6.213746 0.758216 0.185003 0.278398 -0.015540 0.376082 0.506667 -0.016739 4.447816 5.895529 0.023840 4.054327 17.432046 0.980545 7.108378 -3.380053 0.452668 1.439114 6.382652 1.110624 -6.995064 -12.188453 -7.626678 -39.286988 -73.800042 56.936738 -3.481067 -1.923667 -30.814303 -5.114875 3.902540 1.011131 19.123357 -4.748194 1.697526 46.759145 -80.733313 -71.056193 -0.571091 9.660703 10.049592 1.693942 -74.120768 -13.685945 -124.643240 78.368462 -122.011014 -0.615213 -17.988168 0.431157 -0.009463 1.004884 0.022571 -7.472636 -78.767063 17.199322 109.934517 78.286950 106.982489 -15.222828 -21.841343 -0.007886 -0.657026 -0.937743 -0.211415
-56.562261 50.514015 -1.034254 170.076762 -5.592176 0.781158 4.646534 6.194218 0.766752 0.177305 0.269466 -0.019369 0.378330 0.504790 -0.016461 4.489947 5.882719 0.031102 4.002412 17.415293 0.984334 7.054162 -3.413509 0.471073 1.474060 6.323297 1.136291 -6.888571 -12.372360 -7.678663 -39.428666 -73.844780 57.021974 -3.466988 -1.948742 -30.813968 -5.186810 3.876113 1.006038 19.177692 -4.817220 1.687530 46.924349 -80.739128 -71.182356 -0.549642 9.632070 10.072502 1.771961 -74.188917 -13.746005 -124.662415 78.329265 -122.042724 -0.644279 -17.961196 0.446225 0.006458 0.975134 0.028283 -7.513279 -78.811518 17.223953 109.895377 78.304915 106.928087 -15.252640 -21.844499 -0.006802 -0.630049 -0.920239 -0.200545
